<svg id='Blockchain_New_Logo_24' width='24' height='24' viewBox='0 0 24 24' xmlns='http://www.w3.org/2000/svg' xmlns:xlink='http://www.w3.org/1999/xlink'><rect width='24' height='24' stroke='none' fill='#000000' opacity='0'/>


<g transform="matrix(0.42 0 0 0.42 12 12)" >
<g style="" >
<g transform="matrix(1 0 0 1 0.01 -13.21)" >
<path style="stroke: none; stroke-width: 1; stroke-dasharray: none; stroke-linecap: butt; stroke-dashoffset: 0; stroke-linejoin: miter; stroke-miterlimit: 4; fill: rgb(128,151,162); fill-rule: nonzero; opacity: 1;" transform=" translate(-24.01, -10.79)" d="M 20.466 4.464 L 15.18 9.75 L 24.012999999999998 18.588 L 32.830999999999996 9.760000000000002 L 27.534999999999997 4.464000000000001 C 26.558 3.488 25.279 3 24 3 C 22.721 3 21.442 3.488 20.466 4.464 z" stroke-linecap="round" />
</g>
<g transform="matrix(1 0 0 1 -10.49 -2.7)" >
<path style="stroke: none; stroke-width: 1; stroke-dasharray: none; stroke-linecap: butt; stroke-dashoffset: 0; stroke-linejoin: miter; stroke-miterlimit: 4; fill: rgb(55,71,79); fill-rule: nonzero; opacity: 1;" transform=" translate(-13.51, -21.3)" d="M 15.18 9.75 L 4.464 20.466 C 3.488 21.442 3 22.721 3 24 C 3 25.279 3.488 26.558 4.464 27.534 L 9.773 32.842999999999996 L 24.012999999999998 18.587999999999994 L 15.18 9.75 z" stroke-linecap="round" />
</g>
<g transform="matrix(1 0 0 1 8.79 -5.49)" >
<path style="stroke: none; stroke-width: 1; stroke-dasharray: none; stroke-linecap: butt; stroke-dashoffset: 0; stroke-linejoin: miter; stroke-miterlimit: 4; fill: rgb(21,101,192); fill-rule: nonzero; opacity: 1;" transform=" translate(-32.79, -18.51)" d="M 41.569 18.499 L 32.831 9.76 L 24.013 18.588 L 32.687 27.269 z" stroke-linecap="round" />
</g>
<g transform="matrix(1 0 0 1 14.84 1.66)" >
<path style="stroke: none; stroke-width: 1; stroke-dasharray: none; stroke-linecap: butt; stroke-dashoffset: 0; stroke-linejoin: miter; stroke-miterlimit: 4; fill: rgb(144,202,249); fill-rule: nonzero; opacity: 1;" transform=" translate(-38.84, -25.66)" d="M 43.536 20.466 L 41.569 18.499000000000002 L 32.687000000000005 27.269000000000002 L 38.242000000000004 32.828 L 43.535000000000004 27.535000000000004 C 44.503 26.567000000000004 44.99100000000001 25.301000000000002 44.999 24.032000000000004 C 45.008 22.742 44.52 21.45 43.536 20.466 z" stroke-linecap="round" />
</g>
<g transform="matrix(1 0 0 1 0.01 7.79)" >
<path style="stroke: none; stroke-width: 1; stroke-dasharray: none; stroke-linecap: butt; stroke-dashoffset: 0; stroke-linejoin: miter; stroke-miterlimit: 4; fill: rgb(3,169,244); fill-rule: nonzero; opacity: 1;" transform=" translate(-24.01, -31.79)" d="M 9.773 32.843 L 20.466 43.536 C 21.442 44.512 22.721 45 24 45 C 25.279 45 26.558 44.512 27.534 43.536 L 38.242 32.828 L 24.011999999999997 18.588 L 9.773 32.843 z" stroke-linecap="round" />
</g>
</g>
</g>
</svg>
